<svg width="1440" height="296" viewBox="0 0 1440 296" fill="none" xmlns="http://www.w3.org/2000/svg">
<g clip-path="url(#clip0_401_609)">
<rect width="1440" height="296" fill="#0B1B2B"/>
<g filter="url(#filter0_f_401_609)">
<circle cx="-12" cy="22" r="118" fill="#14589C"/>
</g>
<g filter="url(#filter1_f_401_609)">
<circle cx="1355.07" cy="42.9365" r="77.6256" transform="rotate(15 1355.07 42.9365)" fill="#14589C"/>
</g>
<rect x="212" y="125" width="69" height="3" rx="1.5" fill="#1562AF" fill-opacity="0.14"/>
<rect x="99" y="125" width="106" height="3" rx="1.5" fill="#1562AF" fill-opacity="0.14"/>
<rect y="125" width="92" height="3" rx="1.5" fill="#1562AF" fill-opacity="0.14"/>
<rect x="287" y="125" width="77" height="3" rx="1.5" fill="#1562AF" fill-opacity="0.34"/>
<rect x="328" y="136" width="36" height="3" rx="1.5" fill="#1562AF" fill-opacity="0.14"/>
<rect x="184" y="136" width="137" height="3" rx="1.5" fill="#1562AF" fill-opacity="0.14"/>
<rect x="72" y="136" width="105" height="3" rx="1.5" fill="#1562AF" fill-opacity="0.34"/>
<rect y="136" width="65" height="3" rx="1.5" fill="#1562AF" fill-opacity="0.14"/>
<rect y="70" width="144" height="3" rx="1.5" fill="#1562AF" fill-opacity="0.14"/>
<rect x="151" y="70" width="136" height="3" rx="1.5" fill="#1562AF" fill-opacity="0.34"/>
<rect width="46" height="3" rx="1.5" transform="matrix(-1 0 0 1 340 70)" fill="#1562AF" fill-opacity="0.14"/>
<rect x="122" y="81" width="111" height="3" rx="1.5" fill="#1562AF" fill-opacity="0.14"/>
<rect x="122" y="222" width="111" height="3" rx="1.5" fill="#1562AF" fill-opacity="0.14"/>
<rect y="81" width="115" height="3" rx="1.5" fill="#1562AF" fill-opacity="0.34"/>
<rect y="222" width="115" height="3" rx="1.5" fill="#1562AF" fill-opacity="0.34"/>
<rect x="275" y="81" width="28" height="3" rx="1.5" fill="#1562AF" fill-opacity="0.34"/>
<rect x="240" y="81" width="28" height="3" rx="1.5" fill="#1562AF" fill-opacity="0.14"/>
<rect x="240" y="222" width="37" height="3" rx="1.5" fill="#1562AF" fill-opacity="0.14"/>
<rect x="310" y="81" width="83" height="3" rx="1.5" fill="#1562AF" fill-opacity="0.14"/>
<rect x="284" y="92" width="89" height="3" rx="1.5" fill="#1562AF" fill-opacity="0.14"/>
<rect x="284" y="233" width="19" height="3" rx="1.5" fill="#1562AF" fill-opacity="0.14"/>
<rect x="134" y="92" width="143" height="3" rx="1.5" fill="#1562AF" fill-opacity="0.34"/>
<rect x="134" y="233" width="143" height="3" rx="1.5" fill="#1562AF" fill-opacity="0.34"/>
<rect x="95" y="92" width="32" height="3" rx="1.5" fill="#1562AF" fill-opacity="0.14"/>
<rect x="95" y="233" width="32" height="3" rx="1.5" fill="#1562AF" fill-opacity="0.14"/>
<rect y="92" width="88" height="3" rx="1.5" fill="#1562AF" fill-opacity="0.14"/>
<rect y="233" width="88" height="3" rx="1.5" fill="#1562AF" fill-opacity="0.14"/>
<rect x="349" y="103" width="60" height="3" rx="1.5" fill="#1562AF" fill-opacity="0.34"/>
<rect x="201" y="103" width="142" height="3" rx="1.5" fill="#1562AF" fill-opacity="0.14"/>
<rect x="201" y="244" width="51" height="3" rx="1.5" fill="#1562AF" fill-opacity="0.14"/>
<rect x="259" y="244" width="62" height="3" rx="1.5" fill="#1562AF" fill-opacity="0.34"/>
<rect x="163" y="103" width="31" height="3" rx="1.5" fill="#1562AF" fill-opacity="0.14"/>
<rect x="106" y="103" width="51" height="3" rx="1.5" fill="#1562AF" fill-opacity="0.14"/>
<rect x="106" y="244" width="88" height="3" rx="1.5" fill="#1562AF" fill-opacity="0.14"/>
<rect x="32" y="103" width="67" height="3" rx="1.5" fill="#1562AF" fill-opacity="0.34"/>
<rect y="244" width="99" height="3" rx="1.5" fill="#1562AF" fill-opacity="0.34"/>
<rect y="103" width="25" height="3" rx="1.5" fill="#1562AF" fill-opacity="0.14"/>
<rect y="114" width="72" height="3" rx="1.5" fill="#1562AF" fill-opacity="0.34"/>
<rect y="255" width="72" height="3" rx="1.5" fill="#1562AF" fill-opacity="0.14"/>
<rect x="79" y="114" width="97" height="3" rx="1.5" fill="#1562AF" fill-opacity="0.14"/>
<rect x="79" y="255" width="55" height="3" rx="1.5" fill="#1562AF" fill-opacity="0.34"/>
<rect width="61" height="3" rx="1.5" transform="matrix(-1 0 0 1 1250 197)" fill="#1562AF" fill-opacity="0.14"/>
<rect width="94" height="3" rx="1.5" transform="matrix(-1 0 0 1 1350 197)" fill="#1562AF" fill-opacity="0.34"/>
<rect width="82" height="3" rx="1.5" transform="matrix(-1 0 0 1 1438 197)" fill="#1562AF" fill-opacity="0.14"/>
<rect width="68" height="3" rx="1.5" transform="matrix(-1 0 0 1 1183 197)" fill="#1562AF" fill-opacity="0.34"/>
<rect width="42" height="3" rx="1.5" transform="matrix(-1 0 0 1 1109 208)" fill="#1562AF" fill-opacity="0.34"/>
<rect width="32" height="3" rx="1.5" transform="matrix(-1 0 0 1 1147 208)" fill="#1562AF" fill-opacity="0.14"/>
<rect width="122" height="3" rx="1.5" transform="matrix(-1 0 0 1 1275 208)" fill="#1562AF" fill-opacity="0.14"/>
<rect width="93" height="3" rx="1.5" transform="matrix(-1 0 0 1 1374 208)" fill="#1562AF" fill-opacity="0.14"/>
<rect width="58" height="3" rx="1.5" transform="matrix(-1 0 0 1 1438 208)" fill="#1562AF" fill-opacity="0.34"/>
<rect width="118" height="3" rx="1.5" transform="matrix(-1 0 0 1 1438 30)" fill="#1562AF" fill-opacity="0.14"/>
<rect width="128" height="3" rx="1.5" transform="matrix(-1 0 0 1 1438 219)" fill="#1562AF" fill-opacity="0.14"/>
<rect width="112" height="3" rx="1.5" transform="matrix(-1 0 0 1 1314 30)" fill="#1562AF" fill-opacity="0.34"/>
<rect width="121" height="3" rx="1.5" transform="matrix(-1 0 0 1 1257 219)" fill="#1562AF" fill-opacity="0.14"/>
<rect x="1158" y="30" width="38" height="3" rx="1.5" fill="#1562AF" fill-opacity="0.14"/>
<rect x="1263" y="219" width="41" height="3" rx="1.5" fill="#1562AF" fill-opacity="0.34"/>
<rect width="92" height="3" rx="1.5" transform="matrix(-1 0 0 1 1338 41)" fill="#1562AF" fill-opacity="0.14"/>
<rect width="99" height="3" rx="1.5" transform="matrix(-1 0 0 1 1330 230)" fill="#1562AF" fill-opacity="0.14"/>
<rect width="94" height="3" rx="1.5" transform="matrix(-1 0 0 1 1438 41)" fill="#1562AF" fill-opacity="0.34"/>
<rect width="102" height="3" rx="1.5" transform="matrix(-1 0 0 1 1438 230)" fill="#1562AF" fill-opacity="0.34"/>
<rect width="23" height="3" rx="1.5" transform="matrix(-1 0 0 1 1212 41)" fill="#1562AF" fill-opacity="0.34"/>
<rect width="23" height="3" rx="1.5" transform="matrix(-1 0 0 1 1241 41)" fill="#1562AF" fill-opacity="0.14"/>
<rect width="62" height="3" rx="1.5" transform="matrix(-1 0 0 1 1225 230)" fill="#1562AF" fill-opacity="0.34"/>
<rect width="68" height="3" rx="1.5" transform="matrix(-1 0 0 1 1183 41)" fill="#1562AF" fill-opacity="0.14"/>
<rect width="79" height="3" rx="1.5" transform="matrix(-1 0 0 1 1186 84)" fill="#1562AF" fill-opacity="0.14"/>
<rect width="79" height="3" rx="1.5" transform="matrix(-1 0 0 1 1186 241)" fill="#1562AF" fill-opacity="0.34"/>
<rect width="127" height="3" rx="1.5" transform="matrix(-1 0 0 1 1319 84)" fill="#1562AF" fill-opacity="0.14"/>
<rect width="127" height="3" rx="1.5" transform="matrix(-1 0 0 1 1319 241)" fill="#1562AF" fill-opacity="0.14"/>
<rect width="29" height="3" rx="1.5" transform="matrix(-1 0 0 1 1354 84)" fill="#1562AF" fill-opacity="0.34"/>
<rect width="29" height="3" rx="1.5" transform="matrix(-1 0 0 1 1354 241)" fill="#1562AF" fill-opacity="0.34"/>
<rect width="78" height="3" rx="1.5" transform="matrix(-1 0 0 1 1438 84)" fill="#1562AF" fill-opacity="0.14"/>
<rect width="78" height="3" rx="1.5" transform="matrix(-1 0 0 1 1438 241)" fill="#1562AF" fill-opacity="0.14"/>
<rect width="53" height="3" rx="1.5" transform="matrix(-1 0 0 1 1128 95)" fill="#1562AF" fill-opacity="0.34"/>
<rect width="53" height="3" rx="1.5" transform="matrix(-1 0 0 1 1128 252)" fill="#1562AF" fill-opacity="0.14"/>
<rect width="126" height="3" rx="1.5" transform="matrix(-1 0 0 1 1260 95)" fill="#1562AF" fill-opacity="0.14"/>
<rect width="126" height="3" rx="1.5" transform="matrix(-1 0 0 1 1260 252)" fill="#1562AF" fill-opacity="0.14"/>
<rect width="27" height="3" rx="1.5" transform="matrix(-1 0 0 1 1293 95)" fill="#1562AF" fill-opacity="0.34"/>
<rect width="45" height="3" rx="1.5" transform="matrix(-1 0 0 1 1344 95)" fill="#1562AF" fill-opacity="0.14"/>
<rect width="78" height="3" rx="1.5" transform="matrix(-1 0 0 1 1344 252)" fill="#1562AF" fill-opacity="0.34"/>
<rect width="60" height="3" rx="1.5" transform="matrix(-1 0 0 1 1410 95)" fill="#1562AF" fill-opacity="0.14"/>
<rect width="88" height="3" rx="1.5" transform="matrix(-1 0 0 1 1438 252)" fill="#1562AF" fill-opacity="0.14"/>
<rect width="22" height="3" rx="1.5" transform="matrix(-1 0 0 1 1438 95)" fill="#1562AF" fill-opacity="0.14"/>
<rect width="64" height="3" rx="1.5" transform="matrix(-1 0 0 1 1438 106)" fill="#1562AF" fill-opacity="0.34"/>
<rect width="64" height="3" rx="1.5" transform="matrix(-1 0 0 1 1438 263)" fill="#1562AF" fill-opacity="0.34"/>
<rect width="86" height="3" rx="1.5" transform="matrix(-1 0 0 1 1368 106)" fill="#1562AF" fill-opacity="0.14"/>
<rect width="154" height="3" rx="1.5" transform="matrix(-1 0 0 1 1368 263)" fill="#1562AF" fill-opacity="0.14"/>
<g filter="url(#filter2_f_401_609)">
<rect x="272" y="235" width="891" height="52" fill="#14589C"/>
</g>
<g clip-path="url(#clip1_401_609)">
<path d="M716.235 82.7646L716.235 82.7647C716.919 83.4483 716.919 84.5516 716.235 85.2353L716.235 85.2353L701.238 100.235C700.554 100.919 699.446 100.919 698.763 100.235C698.079 99.5517 698.079 98.4483 698.763 97.7646L698.763 97.7646L711.991 84.5302L712.521 83.9999L711.991 83.4697L698.763 70.2377C698.763 70.2377 698.763 70.2377 698.763 70.2377C698.079 69.5541 698.079 68.4462 698.762 67.7625C698.762 67.7625 698.762 67.7625 698.762 67.7624C698.762 67.7624 698.763 67.7623 698.763 67.7623C699.446 67.0795 700.554 67.0795 701.238 67.7625C701.238 67.7625 701.238 67.7625 701.238 67.7626L716.235 82.7646ZM740 97.25C740.969 97.25 741.75 98.0314 741.75 99C741.75 99.9686 740.969 100.75 740 100.75H717.5C716.531 100.75 715.75 99.9686 715.75 99C715.75 98.0314 716.531 97.25 717.5 97.25H740Z" stroke="#3294F8" stroke-width="1.5"/>
</g>
<path d="M632.824 151L633.691 133.434H636.27L641.309 147.18L646.254 133.434H648.832L649.758 151H647.438L646.828 136.926L641.977 151H640.617L635.531 137.031L635.016 151H632.824ZM662.93 151H653.039V133.539H662.824L663.059 135.344H655.418V140.957H661.945V142.855H655.418V149.207H663.164L662.93 151ZM679.137 133.539V144.473C679.137 145.41 679.094 146.215 679.008 146.887C678.93 147.559 678.785 148.156 678.574 148.68C678.363 149.195 678.098 149.617 677.777 149.945C677.465 150.266 677.051 150.531 676.535 150.742C676.027 150.945 675.457 151.086 674.824 151.164C674.191 151.242 673.426 151.281 672.527 151.281C671.66 151.281 670.922 151.246 670.312 151.176C669.703 151.105 669.141 150.977 668.625 150.789C668.109 150.594 667.691 150.34 667.371 150.027C667.059 149.707 666.789 149.293 666.562 148.785C666.336 148.27 666.176 147.664 666.082 146.969C665.996 146.273 665.953 145.441 665.953 144.473V133.539H668.332V144.777C668.332 145.426 668.332 145.895 668.332 146.184C668.34 146.473 668.363 146.828 668.402 147.25C668.441 147.664 668.492 147.949 668.555 148.105C668.617 148.254 668.719 148.441 668.859 148.668C669.008 148.895 669.172 149.039 669.352 149.102C669.539 149.156 669.793 149.227 670.113 149.312C670.434 149.398 670.777 149.449 671.145 149.465C671.52 149.473 671.984 149.477 672.539 149.477C673.195 149.477 673.742 149.457 674.18 149.418C674.625 149.379 675.012 149.301 675.34 149.184C675.668 149.066 675.918 148.934 676.09 148.785C676.27 148.629 676.41 148.402 676.512 148.105C676.621 147.809 676.691 147.5 676.723 147.18C676.754 146.859 676.77 146.434 676.77 145.902L676.758 133.539H679.137ZM699.352 139.234C699.352 139.945 699.312 140.578 699.234 141.133C699.156 141.688 699.051 142.164 698.918 142.562C698.793 142.953 698.617 143.289 698.391 143.57C698.172 143.852 697.938 144.078 697.688 144.25C697.445 144.422 697.148 144.559 696.797 144.66C696.453 144.754 696.109 144.816 695.766 144.848C695.43 144.879 695.035 144.895 694.582 144.895H689.93V151H687.562V133.539H693.891C694.617 133.539 695.23 133.57 695.73 133.633C696.238 133.688 696.707 133.793 697.137 133.949C697.566 134.105 697.91 134.316 698.168 134.582C698.426 134.848 698.648 135.195 698.836 135.625C699.023 136.055 699.152 136.562 699.223 137.148C699.301 137.727 699.344 138.422 699.352 139.234ZM696.984 139.105C696.977 138.543 696.961 138.086 696.938 137.734C696.914 137.383 696.867 137.051 696.797 136.738C696.734 136.426 696.648 136.188 696.539 136.023C696.438 135.859 696.293 135.719 696.105 135.602C695.926 135.477 695.711 135.395 695.461 135.355C695.219 135.316 694.914 135.297 694.547 135.297H689.93V143.125H694.066C694.676 143.125 695.172 143.074 695.555 142.973C695.938 142.871 696.234 142.703 696.445 142.469C696.664 142.227 696.809 141.945 696.879 141.625C696.957 141.305 696.996 140.891 696.996 140.383C696.996 140.258 696.992 140.055 696.984 139.773C696.984 139.492 696.984 139.27 696.984 139.105ZM708.773 151.281C708.094 151.281 707.488 151.266 706.957 151.234C706.434 151.203 705.949 151.125 705.504 151C705.059 150.883 704.676 150.773 704.355 150.672C704.043 150.57 703.758 150.379 703.5 150.098C703.25 149.809 703.043 149.562 702.879 149.359C702.715 149.148 702.574 148.805 702.457 148.328C702.34 147.844 702.254 147.434 702.199 147.098C702.145 146.754 702.098 146.227 702.059 145.516C702.027 144.805 702.008 144.195 702 143.688C702 143.18 702 142.445 702 141.484C702 140.328 702.031 139.367 702.094 138.602C702.156 137.836 702.277 137.125 702.457 136.469C702.645 135.812 702.887 135.297 703.184 134.922C703.488 134.547 703.898 134.227 704.414 133.961C704.938 133.688 705.543 133.504 706.23 133.41C706.926 133.309 707.773 133.258 708.773 133.258C709.719 133.258 710.527 133.305 711.199 133.398C711.871 133.492 712.465 133.66 712.98 133.902C713.504 134.137 713.922 134.434 714.234 134.793C714.555 135.145 714.816 135.609 715.02 136.188C715.223 136.766 715.359 137.414 715.43 138.133C715.508 138.844 715.547 139.711 715.547 140.734C715.547 143.625 715.504 145.527 715.418 146.441C715.27 148.004 714.91 149.121 714.34 149.793C713.738 150.512 712.715 150.965 711.27 151.152C710.582 151.238 709.75 151.281 708.773 151.281ZM710.449 135.109C710.004 135.078 709.445 135.062 708.773 135.062C708.102 135.062 707.543 135.078 707.098 135.109C706.652 135.141 706.262 135.207 705.926 135.309C705.598 135.41 705.344 135.523 705.164 135.648C704.984 135.773 704.836 135.969 704.719 136.234C704.609 136.492 704.535 136.758 704.496 137.031C704.465 137.305 704.441 137.676 704.426 138.145C704.402 139.59 704.391 141.043 704.391 142.504C704.391 144.707 704.449 146.215 704.566 147.027C704.754 148.246 705.109 148.949 705.633 149.137C706.023 149.363 707.07 149.477 708.773 149.477C710.477 149.477 711.523 149.363 711.914 149.137C712.062 149.082 712.195 148.992 712.312 148.867C712.438 148.742 712.539 148.574 712.617 148.363C712.703 148.152 712.777 147.941 712.84 147.73C712.902 147.512 712.953 147.234 712.992 146.898C713.031 146.562 713.062 146.262 713.086 145.996C713.109 145.723 713.125 145.379 713.133 144.965C713.141 144.543 713.145 144.195 713.145 143.922C713.152 143.648 713.156 143.285 713.156 142.832C713.156 141.254 713.145 139.691 713.121 138.145C713.105 137.676 713.078 137.305 713.039 137.031C713.008 136.758 712.934 136.492 712.816 136.234C712.707 135.969 712.562 135.773 712.383 135.648C712.203 135.523 711.945 135.41 711.609 135.309C711.281 135.207 710.895 135.141 710.449 135.109ZM731.145 138.344C731.145 139.836 730.863 140.945 730.301 141.672C729.738 142.391 728.953 142.832 727.945 142.996C729.445 143.301 730.336 144.254 730.617 145.855L731.52 151H728.977C728.914 150.641 728.84 150.121 728.754 149.441C728.676 148.754 728.602 148.176 728.531 147.707C728.461 147.23 728.367 146.727 728.25 146.195C728.133 145.664 727.977 145.219 727.781 144.859C727.594 144.5 727.367 144.234 727.102 144.062C726.68 143.883 725.988 143.793 725.027 143.793H721.406V151H719.039V133.539H724.371C724.934 133.539 725.41 133.547 725.801 133.562C726.199 133.57 726.617 133.594 727.055 133.633C727.492 133.672 727.859 133.727 728.156 133.797C728.453 133.867 728.754 133.961 729.059 134.078C729.371 134.195 729.625 134.34 729.82 134.512C730.023 134.684 730.215 134.891 730.395 135.133C730.574 135.367 730.715 135.641 730.816 135.953C730.918 136.258 730.996 136.609 731.051 137.008C731.113 137.406 731.145 137.852 731.145 138.344ZM728.801 139.27V137.641C728.801 137.344 728.793 137.113 728.777 136.949C728.77 136.777 728.742 136.598 728.695 136.41C728.648 136.215 728.574 136.07 728.473 135.977C728.379 135.875 728.25 135.777 728.086 135.684C727.93 135.582 727.723 135.512 727.465 135.473C727.215 135.434 726.918 135.402 726.574 135.379C726.238 135.348 725.832 135.332 725.355 135.332H721.406V141.93H725.496C726.098 141.93 726.594 141.898 726.984 141.836C727.375 141.773 727.691 141.688 727.934 141.578C728.184 141.461 728.371 141.289 728.496 141.062C728.621 140.828 728.703 140.582 728.742 140.324C728.781 140.059 728.801 139.707 728.801 139.27ZM743.93 135.344H739.371V151H736.992V135.344H732.527V133.539H743.93V135.344ZM755.566 135.344H748.359V141.039H754.5V142.938H748.359V151H745.98V133.539H755.332L755.566 135.344ZM764.531 151.281C763.852 151.281 763.246 151.266 762.715 151.234C762.191 151.203 761.707 151.125 761.262 151C760.816 150.883 760.434 150.773 760.113 150.672C759.801 150.57 759.516 150.379 759.258 150.098C759.008 149.809 758.801 149.562 758.637 149.359C758.473 149.148 758.332 148.805 758.215 148.328C758.098 147.844 758.012 147.434 757.957 147.098C757.902 146.754 757.855 146.227 757.816 145.516C757.785 144.805 757.766 144.195 757.758 143.688C757.758 143.18 757.758 142.445 757.758 141.484C757.758 140.328 757.789 139.367 757.852 138.602C757.914 137.836 758.035 137.125 758.215 136.469C758.402 135.812 758.645 135.297 758.941 134.922C759.246 134.547 759.656 134.227 760.172 133.961C760.695 133.688 761.301 133.504 761.988 133.41C762.684 133.309 763.531 133.258 764.531 133.258C765.477 133.258 766.285 133.305 766.957 133.398C767.629 133.492 768.223 133.66 768.738 133.902C769.262 134.137 769.68 134.434 769.992 134.793C770.312 135.145 770.574 135.609 770.777 136.188C770.98 136.766 771.117 137.414 771.188 138.133C771.266 138.844 771.305 139.711 771.305 140.734C771.305 143.625 771.262 145.527 771.176 146.441C771.027 148.004 770.668 149.121 770.098 149.793C769.496 150.512 768.473 150.965 767.027 151.152C766.34 151.238 765.508 151.281 764.531 151.281ZM766.207 135.109C765.762 135.078 765.203 135.062 764.531 135.062C763.859 135.062 763.301 135.078 762.855 135.109C762.41 135.141 762.02 135.207 761.684 135.309C761.355 135.41 761.102 135.523 760.922 135.648C760.742 135.773 760.594 135.969 760.477 136.234C760.367 136.492 760.293 136.758 760.254 137.031C760.223 137.305 760.199 137.676 760.184 138.145C760.16 139.59 760.148 141.043 760.148 142.504C760.148 144.707 760.207 146.215 760.324 147.027C760.512 148.246 760.867 148.949 761.391 149.137C761.781 149.363 762.828 149.477 764.531 149.477C766.234 149.477 767.281 149.363 767.672 149.137C767.82 149.082 767.953 148.992 768.07 148.867C768.195 148.742 768.297 148.574 768.375 148.363C768.461 148.152 768.535 147.941 768.598 147.73C768.66 147.512 768.711 147.234 768.75 146.898C768.789 146.562 768.82 146.262 768.844 145.996C768.867 145.723 768.883 145.379 768.891 144.965C768.898 144.543 768.902 144.195 768.902 143.922C768.91 143.648 768.914 143.285 768.914 142.832C768.914 141.254 768.902 139.691 768.879 138.145C768.863 137.676 768.836 137.305 768.797 137.031C768.766 136.758 768.691 136.492 768.574 136.234C768.465 135.969 768.32 135.773 768.141 135.648C767.961 135.523 767.703 135.41 767.367 135.309C767.039 135.207 766.652 135.141 766.207 135.109ZM765.223 128.336C765.535 128.062 765.863 127.926 766.207 127.926C766.574 127.926 766.867 128.043 767.086 128.277C767.305 128.504 767.414 128.777 767.414 129.098C767.414 129.34 767.344 129.574 767.203 129.801C767.062 130.027 766.855 130.199 766.582 130.316C766.496 130.355 766.066 130.52 765.293 130.809C764.52 131.098 763.77 131.379 763.043 131.652L761.953 132.062L761.754 131.816C763.762 129.738 764.918 128.578 765.223 128.336ZM783.879 151H775.008V133.539H777.387V149.207H784.113L783.879 151ZM789.176 151H786.797V133.539H789.176V151ZM799.523 151.281C798.844 151.281 798.238 151.266 797.707 151.234C797.184 151.203 796.699 151.125 796.254 151C795.809 150.883 795.426 150.773 795.105 150.672C794.793 150.57 794.508 150.379 794.25 150.098C794 149.809 793.793 149.562 793.629 149.359C793.465 149.148 793.324 148.805 793.207 148.328C793.09 147.844 793.004 147.434 792.949 147.098C792.895 146.754 792.848 146.227 792.809 145.516C792.777 144.805 792.758 144.195 792.75 143.688C792.75 143.18 792.75 142.445 792.75 141.484C792.75 140.328 792.781 139.367 792.844 138.602C792.906 137.836 793.027 137.125 793.207 136.469C793.395 135.812 793.637 135.297 793.934 134.922C794.238 134.547 794.648 134.227 795.164 133.961C795.688 133.688 796.293 133.504 796.98 133.41C797.676 133.309 798.523 133.258 799.523 133.258C800.469 133.258 801.277 133.305 801.949 133.398C802.621 133.492 803.215 133.66 803.73 133.902C804.254 134.137 804.672 134.434 804.984 134.793C805.305 135.145 805.566 135.609 805.77 136.188C805.973 136.766 806.109 137.414 806.18 138.133C806.258 138.844 806.297 139.711 806.297 140.734C806.297 143.625 806.254 145.527 806.168 146.441C806.02 148.004 805.66 149.121 805.09 149.793C804.488 150.512 803.465 150.965 802.02 151.152C801.332 151.238 800.5 151.281 799.523 151.281ZM801.199 135.109C800.754 135.078 800.195 135.062 799.523 135.062C798.852 135.062 798.293 135.078 797.848 135.109C797.402 135.141 797.012 135.207 796.676 135.309C796.348 135.41 796.094 135.523 795.914 135.648C795.734 135.773 795.586 135.969 795.469 136.234C795.359 136.492 795.285 136.758 795.246 137.031C795.215 137.305 795.191 137.676 795.176 138.145C795.152 139.59 795.141 141.043 795.141 142.504C795.141 144.707 795.199 146.215 795.316 147.027C795.504 148.246 795.859 148.949 796.383 149.137C796.773 149.363 797.82 149.477 799.523 149.477C801.227 149.477 802.273 149.363 802.664 149.137C802.812 149.082 802.945 148.992 803.062 148.867C803.188 148.742 803.289 148.574 803.367 148.363C803.453 148.152 803.527 147.941 803.59 147.73C803.652 147.512 803.703 147.234 803.742 146.898C803.781 146.562 803.812 146.262 803.836 145.996C803.859 145.723 803.875 145.379 803.883 144.965C803.891 144.543 803.895 144.195 803.895 143.922C803.902 143.648 803.906 143.285 803.906 142.832C803.906 141.254 803.895 139.691 803.871 138.145C803.855 137.676 803.828 137.305 803.789 137.031C803.758 136.758 803.684 136.492 803.566 136.234C803.457 135.969 803.312 135.773 803.133 135.648C802.953 135.523 802.695 135.41 802.359 135.309C802.031 135.207 801.645 135.141 801.199 135.109Z" fill="#3294F8"/>
</g>
<defs>
<filter id="filter0_f_401_609" x="-530" y="-496" width="1036" height="1036" filterUnits="userSpaceOnUse" color-interpolation-filters="sRGB">
<feFlood flood-opacity="0" result="BackgroundImageFix"/>
<feBlend mode="normal" in="SourceGraphic" in2="BackgroundImageFix" result="shape"/>
<feGaussianBlur stdDeviation="200" result="effect1_foregroundBlur_401_609"/>
</filter>
<filter id="filter1_f_401_609" x="909.427" y="-402.708" width="891.29" height="891.29" filterUnits="userSpaceOnUse" color-interpolation-filters="sRGB">
<feFlood flood-opacity="0" result="BackgroundImageFix"/>
<feBlend mode="normal" in="SourceGraphic" in2="BackgroundImageFix" result="shape"/>
<feGaussianBlur stdDeviation="184" result="effect1_foregroundBlur_401_609"/>
</filter>
<filter id="filter2_f_401_609" x="60" y="23" width="1315" height="476" filterUnits="userSpaceOnUse" color-interpolation-filters="sRGB">
<feFlood flood-opacity="0" result="BackgroundImageFix"/>
<feBlend mode="normal" in="SourceGraphic" in2="BackgroundImageFix" result="shape"/>
<feGaussianBlur stdDeviation="106" result="effect1_foregroundBlur_401_609"/>
</filter>
<clipPath id="clip0_401_609">
<rect width="1440" height="296" fill="white"/>
</clipPath>
<clipPath id="clip1_401_609">
<rect width="45" height="40" fill="white" transform="translate(697.5 64)"/>
</clipPath>
</defs>
</svg>
